Jump_normalized_Motion_pl02
version=1
nRows=22
nColumns=43
inDegrees=yes
endheader
time		pelvis_tilt		pelvis_list		pelvis_rotation		pelvis_tx		pelvis_ty		pelvis_tz		hip_flexion_r		hip_adduction_r		hip_rotation_r		knee_angle_r		ankle_angle_r		subtalar_angle_r		mtp_angle_r		hip_flexion_l		hip_adduction_l		hip_rotation_l		knee_angle_l		ankle_angle_l		subtalar_angle_l		mtp_angle_l		lumbar_extension		lumbar_bending		lumbar_rotation		neck_flexion		neck_lateral_bending		neck_rotation		arm_flex_r		arm_add_r		arm_rot_r		elbow_flex_r		pro_sup_r		wrist_flex_r		wrist_dev_r		hand_finger_flex_r		arm_flex_l		arm_add_l		arm_rot_l		elbow_flex_l		pro_sup_l		wrist_flex_l		wrist_dev_l		hand_finger_flex_l		
3.062500		-5.178160		-31.652857		86.948357		0.007084		1.638625		1.632941		99.654403		-4.250695		12.428123		-132.821252		12.619619		9.577654		32.545596		94.957266		-8.903453		3.694008		-132.342879		31.209104		13.729466		15.017800		-44.558319		-6.422544		-2.041566		44.691788		5.742393		-2.533842		108.460946		-15.915725		28.015524		64.847934		90.956374		-8.232892		-6.736333		-16.769243		109.426271		-12.588974		25.690195		58.692459		90.419502		-7.720231		-2.005465		-5.905026		
3.065152		-5.152346		-31.949788		86.926795		0.006877		1.638864		1.630271		99.606857		-4.257490		12.464784		-132.797336		12.699033		9.606096		32.547605		94.822075		-8.949263		3.678703		-132.270963		31.195687		13.751775		15.023576		-44.081700		-6.451760		-1.959495		44.564271		5.791177		-2.532654		109.197037		-15.612909		27.923721		64.961643		90.945130		-8.214595		-6.762473		-16.831118		110.130276		-12.324348		25.590812		58.882374		90.413111		-7.738011		-2.049368		-5.935422		
3.067803		-5.122716		-32.252272		86.934795		0.006727		1.639082		1.627735		99.577392		-4.261163		12.492312		-132.779005		12.722720		9.679048		32.550600		94.714774		-9.023615		3.662619		-132.183205		31.201879		13.806867		15.038492		-43.592247		-6.476829		-1.939553		44.509138		5.866250		-2.525747		110.066658		-15.257665		27.925624		64.819231		90.913499		-8.136312		-6.690753		-16.918657		110.942339		-12.008144		25.542309		58.863992		90.407350		-7.757780		-2.040087		-5.985057		
3.070455		-5.087001		-32.498599		86.973971		0.006472		1.639087		1.625404		99.538010		-4.335223		12.510788		-132.808754		12.575310		9.843534		32.557761		94.606848		-9.059949		3.653839		-132.149583		31.251132		13.967154		15.083736		-43.107614		-6.487385		-2.010249		44.553451		6.016215		-2.494202		111.193322		-14.757250		28.204851		64.168721		90.814165		-7.860177		-6.419156		-17.112369		111.972279		-11.613180		25.667327		58.389950		90.397533		-7.757643		-1.922561		-6.086877		
3.073106		-5.033468		-32.557207		86.993724		0.006175		1.639899		1.622561		99.206196		-4.370210		12.555348		-132.754544		12.703713		9.965590		32.576004		94.172683		-9.077380		3.679632		-132.028492		31.308297		14.213366		15.209411		-42.923265		-6.456992		-1.990589		44.409420		6.066584		-2.395456		112.134393		-14.411208		28.246788		63.991858		90.355407		-7.403227		-6.506678		-17.726866		112.872589		-11.448256		25.832156		58.313010		90.178738		-7.772479		-2.201724		-6.286882		
3.075758		-4.934811		-32.201910		87.084447		0.005997		1.641339		1.619607		98.424446		-4.450712		12.538886		-132.718160		12.936802		10.246276		32.628641		93.291289		-9.105586		3.758760		-131.900896		31.511905		14.849931		15.576484		-43.226481		-6.389423		-2.109437		44.358322		6.109686		-2.128985		113.506785		-13.927120		28.542204		63.196059		89.028864		-6.084429		-6.704598		-19.506079		114.204111		-11.371624		26.475118		57.731729		89.527400		-7.786043		-2.911044		-6.838874		
3.078409		-4.886464		-32.536452		87.102428		0.005829		1.641631		1.616828		98.374160		-4.462016		12.549604		-132.672105		12.833146		10.354873		32.631865		93.165745		-9.195502		3.719104		-131.774070		31.507363		14.876724		15.600533		-42.669170		-6.401665		-2.084958		44.200008		6.207689		-2.162697		114.249858		-13.605847		28.532929		63.060635		88.975056		-6.026988		-6.648368		-19.630114		114.898447		-11.070379		26.409916		57.693473		89.488877		-7.825503		-2.890335		-6.883679		
3.081061		-4.847577		-32.855337		87.126395		0.005651		1.641822		1.614095		98.330241		-4.491594		12.568191		-132.649131		12.665314		10.493371		32.636135		93.050416		-9.257188		3.702060		-131.686006		31.525423		14.929000		15.637519		-42.099836		-6.417354		-2.077525		44.053304		6.331495		-2.192670		115.050036		-13.241742		28.584350		62.750270		88.879896		-5.924341		-6.537524		-19.790574		115.637320		-10.731306		26.396024		57.512403		89.441316		-7.869796		-2.841278		-6.940345		
3.083712		-4.814216		-33.126375		87.154691		0.005302		1.642146		1.611252		98.226682		-4.540311		12.638027		-132.610746		12.519548		10.617688		32.640367		92.864688		-9.264484		3.690961		-131.587698		31.563195		15.033633		15.684312		-41.583311		-6.400252		-2.058486		43.881220		6.435442		-2.183849		115.840349		-12.863956		28.622639		62.432234		88.690257		-5.793621		-6.463278		-19.959457		116.381354		-10.430390		26.428513		57.293650		89.400045		-7.937194		-2.843979		-7.009114		
3.086364		-4.786247		-33.391026		87.195591		0.005061		1.642492		1.608331		98.112856		-4.594578		12.685062		-132.573473		12.366796		10.736887		32.644574		92.660603		-9.272602		3.669804		-131.492889		31.601839		15.143869		15.732737		-41.074093		-6.393425		-2.056641		43.714456		6.526983		-2.168639		116.613731		-12.507160		28.650240		62.095053		88.480254		-5.664613		-6.393138		-20.133699		117.114547		-10.137157		26.465595		57.074056		89.361094		-8.014640		-2.858055		-7.083493		
3.089015		-4.757656		-33.646105		87.253646		0.004908		1.642895		1.605391		97.983950		-4.646142		12.714571		-132.529946		12.145563		10.847777		32.648345		92.440811		-9.299427		3.629122		-131.392125		31.647198		15.257095		15.784737		-40.592968		-6.401521		-2.087252		43.576314		6.576038		-2.135671		117.397976		-12.146631		28.597841		61.686937		88.190881		-5.586995		-6.331513		-20.341894		117.857654		-9.830284		26.493701		56.832439		89.348400		-8.171542		-2.895437		-7.206799		
3.091667		-4.723745		-33.898147		87.273024		0.004567		1.643403		1.602248		97.842267		-4.680032		12.782891		-132.451892		11.991660		10.931126		32.651198		92.185069		-9.293637		3.599549		-131.272835		31.666766		15.345841		15.823989		-40.105169		-6.377563		-2.046442		43.443614		6.627818		-2.111391		118.079869		-11.806519		28.538926		61.439766		87.956723		-5.537437		-6.306266		-20.511318		118.516665		-9.599350		26.491587		56.672317		89.344972		-8.311669		-2.933814		-7.314422		
3.094318		-4.726290		-33.790974		87.345386		0.004177		1.644587		1.599167		97.292527		-4.797573		12.943279		-132.348888		11.513182		10.772342		32.672280		91.528148		-9.200381		3.546170		-131.113383		31.776880		15.676861		16.111034		-40.056473		-6.321894		-2.225518		42.931210		6.566464		-1.838092		119.113319		-11.283711		28.797794		60.622183		86.233223		-5.160300		-6.438261		-21.919013		119.541393		-9.553129		27.182475		56.143591		89.489771		-9.234947		-3.391102		-8.178771		
3.096970		-4.670129		-33.975806		87.347299		0.004048		1.645083		1.596017		97.095940		-4.778996		12.946401		-132.281713		11.222735		10.885534		32.684050		91.221955		-9.305917		3.496295		-131.039586		31.823485		15.754095		16.265263		-39.647380		-6.327265		-2.224416		43.011198		6.606279		-1.770176		119.928097		-10.855261		28.774762		60.020394		85.386904		-5.096374		-6.439038		-22.760062		120.309846		-9.297194		27.329588		55.771130		89.474223		-9.703287		-3.514599		-8.633825		
3.099621		-4.606037		-34.257654		87.334810		0.003712		1.645649		1.592538		96.970878		-4.752016		12.985381		-132.167214		11.138614		10.980682		32.686232		90.955747		-9.342543		3.471098		-130.900563		31.794218		15.743630		16.290703		-39.117045		-6.295780		-2.108633		43.001667		6.658414		-1.784484		120.451113		-10.608622		28.648609		59.950962		85.259724		-5.162379		-6.427333		-22.958484		120.808294		-9.130641		27.210967		55.733935		89.449349		-9.818627		-3.505204		-8.739714		
3.102273		-4.505483		-34.457667		87.387346		0.003525		1.646124		1.589461		96.759949		-4.780551		12.927395		-132.089979		10.466639		11.135569		32.691298		90.687519		-9.410250		3.428868		-130.832737		31.827663		15.685537		16.369546		-38.673933		-6.260793		-2.129279		42.918112		6.688895		-1.773704		121.221751		-10.077987		28.501342		59.239488		84.907104		-5.423713		-6.115842		-23.553867		121.516093		-8.709720		27.106328		55.234205		89.471371		-10.279480		-3.354815		-9.157026		
3.104924		-4.221336		-34.074709		87.426670		0.003458		1.648042		1.585521		95.766092		-4.659071		12.837222		-131.875460		10.179514		10.600299		32.727356		89.662192		-9.504420		3.574916		-130.659244		31.797978		15.365164		16.874574		-38.940792		-6.061634		-1.982585		42.500996		6.445324		-1.417074		122.187046		-9.658744		29.114659		58.874403		83.058530		-5.769465		-5.604596		-26.980855		122.336068		-8.868078		27.913350		55.076397		89.739658		-11.776515		-3.596401		-11.272316		
3.107576		-4.101381		-34.403390		87.486150		0.003261		1.648454		1.582141		95.676621		-4.660976		12.738257		-131.789221		9.751689		10.933149		32.733382		89.490292		-9.658356		3.476524		-130.524764		31.808682		15.384696		16.965670		-38.360300		-6.015790		-1.939719		42.667398		6.564355		-1.515598		122.787662		-9.350497		28.975779		58.487888		82.801823		-5.781280		-5.512410		-27.507799		122.890736		-8.538669		27.716788		54.794697		89.600373		-11.833533		-3.520493		-11.513538		
3.110227		-4.014021		-34.645493		87.518830		0.002894		1.649167		1.578390		95.471907		-4.629888		12.790074		-131.671642		9.609577		11.015441		32.735205		89.144905		-9.662638		3.474486		-130.326481		31.784650		15.370187		16.996227		-37.850913		-5.944911		-1.856218		42.542836		6.621346		-1.538200		123.210170		-9.124218		28.850379		58.411043		82.703958		-5.828999		-5.476725		-27.713839		123.293971		-8.405056		27.573494		54.720047		89.568312		-11.919472		-3.528551		-11.639936		
3.112879		-3.850628		-34.780616		87.624901		0.002741		1.649798		1.574902		95.140205		-4.650065		12.675834		-131.598689		8.966452		11.195824		32.739781		88.766551		-9.743043		3.453664		-130.224690		31.844036		15.268684		17.095968		-37.434379		-5.859566		-1.871387		42.296262		6.710935		-1.575561		123.769809		-8.624762		28.614418		57.814053		82.407640		-6.006064		-5.228939		-28.317289		123.811690		-8.019204		27.328481		54.272977		89.512970		-12.215181		-3.529113		-12.040956		
3.115530		-3.731961		-34.958883		87.683163		0.002467		1.650567		1.570991		94.854370		-4.623825		12.685668		-131.495958		8.804738		11.244602		32.741430		88.351116		-9.780526		3.445076		-130.035081		31.820974		15.225468		17.137457		-36.975543		-5.773127		-1.796493		42.111083		6.749213		-1.566285		124.147247		-8.367729		28.477776		57.700358		82.275869		-6.077547		-5.190359		-28.575141		124.187764		-7.894230		27.202151		54.165981		89.522454		-12.358603		-3.610266		-12.228692		
3.118182		-3.531974		-35.011746		87.810188		0.002362		1.651446		1.567234		94.402976		-4.610023		12.561203		-131.402539		8.251948		11.366650		32.744847		87.864650		-9.898202		3.449594		-129.895671		31.855710		15.101692		17.242308		-36.640534		-5.649036		-1.790221		41.756316		6.799111		-1.539821		124.620644		-7.887015		28.209557		57.179445		81.962762		-6.258967		-5.035967		-29.170865		124.637940		-7.591311		26.997480		53.753036		89.557699		-12.697628		-3.780988		-12.668886		
